<svg width="36" height="37" viewBox="0 0 36 37" fill="none"
    xmlns="http://www.w3.org/2000/svg">
    <ellipse cx="18" cy="18.375" rx="18" ry="18.375" fill="#FF3839"/>
    <path d="M23.0959 25.5234H13.4275C12.0915 25.5234 11 24.4319 11 23.0959V13.4275C11 12.0915 12.0915 11 13.4275 11H23.0959C24.4319 11 25.5234 12.0915 25.5234 13.4275V23.0959C25.5234 24.4379 24.4379 25.5234 23.0959 25.5234Z" fill="white"/>
    <path d="M18.2647 21.9927C17.2686 21.9927 16.3322 21.605 15.6284 20.9012C14.9246 20.1974 14.5369 19.2609 14.5369 18.2649C14.5369 17.2688 14.9246 16.3324 15.6284 15.6286C16.3322 14.9248 17.2686 14.5371 18.2647 14.5371C19.2608 14.5371 20.1972 14.9248 20.901 15.6286C21.6048 16.3324 21.9925 17.2688 21.9925 18.2649C21.9925 19.2609 21.6048 20.1974 20.901 20.9012C20.1912 21.605 19.2608 21.9927 18.2647 21.9927ZM18.2647 15.3304C16.6483 15.3304 15.3302 16.6426 15.3302 18.2649C15.3302 19.8812 16.6424 21.1994 18.2647 21.1994C19.8811 21.1994 21.1992 19.8872 21.1992 18.2649C21.1932 16.6485 19.8811 15.3304 18.2647 15.3304Z" fill="black"/>
    <path d="M22.7191 14.4144C23.1144 14.4144 23.4348 14.094 23.4348 13.6987C23.4348 13.3034 23.1144 12.9829 22.7191 12.9829C22.3238 12.9829 22.0033 13.3034 22.0033 13.6987C22.0033 14.094 22.3238 14.4144 22.7191 14.4144Z" fill="black"/>
</svg>
