<svg width="36" height="36" viewBox="0 0 36 36" fill="none"
    xmlns="http://www.w3.org/2000/svg">
    <circle cx="18" cy="18" r="18" fill="#FF3839"/>
    <path d="M13.4757 15.0615H10.2594V25.3183H13.4757V15.0615Z" fill="white"/>
    <path d="M22.1762 14.8395C22.0576 14.8246 21.9316 14.8172 21.8056 14.8098C20.0048 14.7357 18.9895 15.8029 18.6337 16.2624C18.5374 16.3884 18.4929 16.4625 18.4929 16.4625V15.0914H15.4174V25.3482H18.4929H18.6337C18.6337 24.3032 18.6337 23.2657 18.6337 22.2208C18.6337 21.6575 18.6337 21.0943 18.6337 20.5311C18.6337 19.8344 18.5819 19.0933 18.9302 18.456C19.2266 17.9224 19.7602 17.6556 20.3605 17.6556C22.1391 17.6556 22.1762 19.2638 22.1762 19.412C22.1762 19.4194 22.1762 19.4268 22.1762 19.4268V25.3926H25.3925V18.7006C25.3925 16.4106 24.229 15.0618 22.1762 14.8395Z" fill="white"/>
    <path d="M11.8676 13.7351C12.899 13.7351 13.7351 12.899 13.7351 11.8676C13.7351 10.8361 12.899 10 11.8676 10C10.8361 10 10 10.8361 10 11.8676C10 12.899 10.8361 13.7351 11.8676 13.7351Z" fill="white"/>
</svg>
