<svg width="36" height="37" viewBox="0 0 36 37" fill="none"
    xmlns="http://www.w3.org/2000/svg">
    <ellipse cx="18" cy="18.375" rx="18" ry="18.375" fill="#FF3839"/>
    <path d="M9 23.8501C10.8299 23.9542 12.4301 23.5217 13.9907 22.3763C12.4143 22.104 11.3211 21.3751 10.7269 19.8693C11.1864 19.8052 11.5904 19.9253 12.0657 19.7331C10.5131 19.0443 9.50699 18.011 9.46738 16.2249C9.95853 16.2649 10.3309 16.5933 10.9171 16.5452C9.49115 15.1355 9.05545 13.5977 9.95061 11.7314C11.4399 13.4615 13.1827 14.6389 15.3136 15.1916C15.4324 15.2237 15.5433 15.2557 15.6622 15.2797C16.2088 15.4079 16.8583 15.6802 17.1911 15.6402C17.7614 15.5681 17.1911 14.9033 17.3337 14.0382C17.7852 11.347 20.7162 10.1215 22.8868 11.6994C23.5205 12.164 24.0196 12.1559 24.6454 11.8756C24.9702 11.7314 25.3029 11.5873 25.6911 11.4191C25.6039 12.188 25.0177 12.6125 24.5503 13.1812C25.0811 13.3013 25.5089 13.1491 26 12.989C25.8336 13.5416 25.4217 13.854 25.0494 14.1584C24.6612 14.4707 24.5107 14.7991 24.4949 15.3118C24.2572 23.0731 15.5354 29.0724 9.57037 24.2986C8.99208 23.834 9.55452 24.2986 9 23.8501Z" fill="white"/>
</svg>
